<svg width="40" height="41" viewBox="0 0 40 41" fill="none" xmlns="http://www.w3.org/2000/svg">
<path fill-rule="evenodd" clip-rule="evenodd" d="M11.6615 16.9689V38.5201H18.2927V16.9689H11.6615ZM8.34598 38.5201V24.4289H1.71484V38.5201H8.34598ZM21.6082 38.5201V26.9156H28.2394V38.5201H21.6082ZM31.5549 21.1134V38.5201H38.1861V21.1134H31.5549Z" fill="#9CE9A6"/>
<path fill-rule="evenodd" clip-rule="evenodd" d="M16.4959 6.44194L15.0868 4.92175L13.5666 6.33253L1.96216 17.1081L4.78371 20.1452L14.8697 10.7787L24.2345 20.8663L25.6983 22.4412L27.2185 20.921L33.8496 14.2899L36.5286 16.9689L38.1864 15.3111V7.02216H29.8975L28.2397 8.67995L30.9187 11.3589L25.8077 16.4715L16.4959 6.44194Z" fill="#90FD9F"/>
</svg>
